<svg xmlns="http://www.w3.org/2000/svg" width="283" height="64" fill="none" viewBox="0 0 283 64"><path fill="#000" d="M102.5 117a5 5 0 1 1-10 0 5 5 0 0 1 10 0Zm20-5a5 5 0 1 0 0 10 5 5 0 0 0 0-10Zm5-25a5 5 0 1 0-10 0 5 5 0 0 0 10 0Zm15 30a5 5 0 1 0 10 0 5 5 0 0 0-10 0Zm5 35a5 5 0 1 0 0-10 5 5 0 0 0 0 10Zm-5-65a5 5 0 1 0 10 0 5 5 0 0 0-10 0Zm-45 5a5 5 0 1 0 0-10 5 5 0 0 0 0 10Zm-25 20a5 5 0 1 0 0 10 5 5 0 0 0 0-10Zm5 35a5 5 0 1 0-10 0 5 5 0 0 0 10 0Zm-5-65a5 5 0 1 0 0 10 5 5 0 0 0 0-10Zm25 60a5 5 0 1 0 0 10 5 5 0 0 0 0-10Zm25 0a5 5 0 1 0 0 10 5 5 0 0 0 0-10Zm-20 35a5 5 0 1 0-10 0 5 5 0 0 0 10 0Zm25 0a5 5 0 1 0-10 0 5 5 0 0 0 10 0ZM85 93a9 9 0 1 0 0 18 9 9 0 0 0 0-18Zm25 0a9 9 0 1 0 0 18 9 9 0 0 0 0-18Zm-25 30a9 9 0 1 0 0 18 9 9 0 0 0 0-18Zm25 0a9 9 0 1 0 0 18 9 9 0 0 0 0-18Zm-25 30a9 9 0 1 0 0 18 9 9 0 0 0 0-18Zm41-51a9 9 0 1 0 18 0 9 9 0 0 0-18 0Zm0 30a9 9 0 1 0 18 0 9 9 0 0 0-18 0Zm0 30a9 9 0 1 0 18 0 9 9 0 0 0-18 0Zm-16-9a9 9 0 1 0 0 18 9 9 0 0 0 0-18Z"/></svg>